<?xml version="1.0" encoding="UTF-8"?> <!-- Generator: Adobe Illustrator 22.0.1, SVG Export Plug-In . SVG Version: 6.00 Build 0) --> <svg xmlns="http://www.w3.org/2000/svg" xmlns:xlink="http://www.w3.org/1999/xlink" id="Layer_1" x="0px" y="0px" viewBox="0 0 88.1 61.9" style="enable-background:new 0 0 88.1 61.9;" xml:space="preserve"> <style type="text/css"> .st0{fill:none;} .st1{fill:#FFFFFF;} </style> <title>Asset 2</title> <path class="st0" d="M10.4,6c-1,0-2.1,0.3-2.9,1c-0.9,0.8-1.3,2-1.2,3.2v22.3c-0.1,1.2,0.3,2.4,1.2,3.2c0.8,0.7,1.8,1,2.9,1 c1,0,2.1-0.3,2.9-1c0.9-0.8,1.3-2,1.2-3.2V10.3c0.1-1.2-0.3-2.4-1.2-3.2C12.5,6.4,11.5,6,10.4,6z"></path> <path class="st1" d="M17.4,2.5c-2.9-2.5-7-3.2-10.6-1.9C5.6,1.1,4.5,1.7,3.6,2.5c-1,0.9-1.8,2-2.4,3.2c-0.6,1.4-0.9,2.9-0.9,4.5 v22.2c0,1.6,0.3,3.1,0.9,4.5c0.5,1.2,1.4,2.3,2.4,3.1c0.9,0.9,2,1.6,3.2,2c2.3,0.9,4.9,0.9,7.3,0c1.2-0.5,2.3-1.1,3.3-2 c1-0.9,1.8-1.9,2.3-3.1c0.6-1.4,0.9-3,0.9-4.5V10.3c0-1.5-0.3-3.1-0.9-4.5C19.1,4.6,18.3,3.5,17.4,2.5z M14.5,32.5 c0.1,1.2-0.3,2.4-1.2,3.2c-0.8,0.7-1.8,1-2.9,1c-1,0-2.1-0.3-2.9-1c-0.9-0.8-1.3-2-1.2-3.2V10.3C6.3,9.1,6.7,7.9,7.6,7.1 c0.8-0.7,1.8-1,2.9-1c1,0,2.1,0.3,2.9,1c0.9,0.8,1.3,2,1.2,3.2L14.5,32.5z"></path> <polygon class="st1" points="24.5,6 35.2,6 30.5,18.9 26,18.9 25,21.9 29.5,21.9 23.9,37.1 23.9,42.4 41.8,42.4 41.8,36.8 30.2,36.8 35.7,21.9 40,21.9 41.3,18.9 36.8,18.9 41.8,5.1 41.8,0.3 24.5,0.3 "></polygon> <polygon class="st1" points="45.7,6 56.4,6 51.7,18.9 47,18.9 46,21.9 50.6,21.9 45,37.1 45,42.4 63,42.4 63,36.8 51.4,36.8 56.8,21.9 61,21.9 62.3,18.9 57.9,18.9 63,5.1 63,0.3 45.7,0.3 "></polygon> <polygon class="st1" points="81.7,0.3 76.8,17.1 76.7,17.1 71.9,0.3 65.5,0.3 73.8,24.6 73.8,42.4 79.8,42.4 79.8,24.6 88.1,0.3 "></polygon> <g> <path class="st1" d="M39.9,53.8c-0.3-0.2-0.7-0.3-1-0.2c-0.3,0-0.7,0.1-1,0.2c-0.3,0.2-0.5,0.4-0.7,0.7c-0.3,0.6-0.3,1.4,0,2 c0.2,0.3,0.4,0.5,0.7,0.7c0.3,0.2,0.7,0.3,1,0.2c0.3,0,0.7-0.1,1-0.2v0c0.3-0.2,0.5-0.4,0.7-0.7c0.3-0.6,0.3-1.4,0-2 C40.4,54.2,40.2,54,39.9,53.8z"></path> <path class="st1" d="M59.8,53.9c-0.3-0.2-0.6-0.3-1-0.3h-1.2v2.2h1.2c0.4,0,0.7-0.1,1-0.3c0.2-0.2,0.4-0.5,0.3-0.8 C60.1,54.4,60,54.1,59.8,53.9z"></path> <path class="st1" d="M11.2,53.8c-0.6-0.3-1.4-0.3-2,0c-0.3,0.2-0.5,0.4-0.7,0.7c-0.3,0.6-0.3,1.4,0,2c0.2,0.3,0.4,0.5,0.7,0.7 c0.6,0.3,1.4,0.3,2,0c0.3-0.2,0.5-0.4,0.7-0.7c0.3-0.6,0.3-1.4,0-2C11.7,54.2,11.5,54,11.2,53.8z"></path> <path class="st1" d="M29.3,55.9h-1.7v1.6h1.7c0.8,0,1.2-0.3,1.2-0.8C30.5,56.2,30.1,55.9,29.3,55.9z"></path> <path class="st1" d="M0,48.9v13h88v-13H0z M12.8,57c-0.3,0.4-0.6,0.8-1.1,1c-0.5,0.3-1,0.4-1.5,0.4c-0.5,0-1.1-0.1-1.5-0.4 c-0.4-0.2-0.8-0.6-1.1-1c-0.5-0.9-0.5-2.1,0-3c0.3-0.4,0.6-0.8,1.1-1c0.5-0.3,1-0.4,1.5-0.4c0.5,0,1.1,0.1,1.5,0.4 c0.9,0.5,1.5,1.5,1.5,2.5C13.2,56,13.1,56.5,12.8,57z M21.6,57.6c-0.2,0.3-0.5,0.5-0.8,0.6c-0.4,0.2-0.8,0.2-1.2,0.2 c-0.4,0-0.8-0.1-1.2-0.2c-0.4-0.1-0.7-0.3-1-0.5l0.4-0.8c0.3,0.2,0.5,0.3,0.8,0.4c0.3,0.1,0.7,0.2,1,0.2c0.3,0,0.6-0.1,0.9-0.2 c0.2-0.1,0.3-0.3,0.3-0.5c0-0.1-0.1-0.3-0.2-0.4c-0.1-0.1-0.3-0.2-0.4-0.2L19.5,56c-0.3-0.1-0.7-0.2-1-0.3 c-0.3-0.1-0.5-0.3-0.7-0.5c-0.2-0.2-0.3-0.6-0.3-0.9c0-0.3,0.1-0.6,0.2-0.8c0.2-0.3,0.5-0.5,0.8-0.6c0.4-0.2,0.8-0.2,1.2-0.2 c0.3,0,0.7,0,1,0.1c0.3,0.1,0.6,0.2,0.9,0.4l-0.3,0.8c-0.2-0.1-0.5-0.3-0.8-0.3c-0.3-0.1-0.5-0.1-0.8-0.1c-0.3,0-0.6,0.1-0.9,0.2 c-0.2,0.1-0.3,0.3-0.3,0.5c0,0.1,0.1,0.3,0.2,0.4c0.1,0.1,0.3,0.2,0.4,0.2c0.2,0.1,0.5,0.1,0.7,0.2c0.3,0.1,0.7,0.2,1,0.3 c0.3,0.1,0.5,0.3,0.7,0.5c0.2,0.2,0.3,0.5,0.3,0.9C21.9,57,21.8,57.3,21.6,57.6z M31,57.9c-0.5,0.3-1.1,0.4-1.6,0.4h-2.8v-5.6h2.6 c0.5,0,1.1,0.1,1.5,0.4c0.3,0.2,0.5,0.6,0.5,1.1c0,0.3-0.1,0.5-0.2,0.7c-0.1,0.2-0.3,0.4-0.5,0.5c0.3,0.1,0.6,0.3,0.7,0.5 c0.2,0.3,0.3,0.6,0.3,0.9C31.6,57.2,31.4,57.7,31,57.9z M41.5,57c-0.3,0.4-0.6,0.8-1.1,1c-0.5,0.3-1,0.4-1.5,0.4 c-0.5,0-1.1-0.1-1.5-0.4c-0.4-0.2-0.8-0.6-1.1-1c-0.5-0.9-0.5-2.1,0-3c0.3-0.4,0.6-0.8,1.1-1c0.5-0.3,1-0.4,1.5-0.4 c0.5,0,1.1,0.1,1.5,0.4c0.4,0.2,0.8,0.6,1.1,1c0.3,0.4,0.4,1,0.4,1.5C41.9,56,41.8,56.5,41.5,57z M51.4,55.9c0,0.7-0.2,1.4-0.6,1.9 c-1,0.9-2.6,0.9-3.6,0l0.1,0c-0.5-0.5-0.7-1.2-0.6-1.9v-3.2h1v3.1c0,1.1,0.5,1.7,1.4,1.7s1.4-0.6,1.4-1.7v-3.1h1V55.9z M60.2,58.3 L59,56.7h-1.5v1.6h-1v-5.6h2.3c0.4,0,0.9,0.1,1.3,0.2c0.3,0.1,0.6,0.4,0.8,0.7c0.2,0.3,0.3,0.7,0.3,1.1c0,0.4-0.1,0.8-0.3,1.1 c-0.2,0.3-0.5,0.6-0.9,0.7l1.3,1.8H60.2z M70.9,58.3h-0.9L67,54.5v3.8h-1v-5.6h0.8l3.1,3.8v-3.8h1V58.3z M80.2,58.3H76v-5.6h4.1 v0.9h-3V55h2.7v0.9h-2.7v1.5l3.1,0V58.3z"></path> <path class="st1" d="M29.9,54.9c0.3-0.2,0.4-0.7,0.1-1c0-0.1-0.1-0.1-0.1-0.1c-0.3-0.1-0.5-0.2-0.8-0.2h-1.5v1.5h1.5 C29.4,55.1,29.6,55,29.9,54.9z"></path> </g> </svg> 